<svg xmlns="http://www.w3.org/2000/svg" viewBox="0 -1 22 22" fill-rule="evenodd" class="ico_kakaotalk"
  data-v-35f34919="">
  <title>kakaoTalk</title>
  <defs>
    <mask id="mask-2" fill="white">
      <polygon id="path-1" points="4.45159304e-14 0.0586666667 21.6123978 0.0586666667 21.6123978 20 4.45159304e-14 20">
      </polygon>
      <use xlink:href="#path-1"></use>
    </mask>
  </defs>
  <path
    d="M18.6278162,10.9809394 C18.5875516,11.3570758 18.2228958,11.3861667 18.1120356,11.3861667 C18.0851925,11.3861667 18.0581978,11.3848788 18.0313548,11.3821515 C17.8404204,11.3626061 17.7330483,11.2427576 17.5336212,10.9736667 L16.1756214,9.12419697 L15.8042169,9.50260606 L15.8042169,10.8929848 C15.8042169,11.1743485 15.5820415,11.3863939 15.2875263,11.3863939 C14.9780731,11.3863939 14.7700775,11.1881364 14.7700775,10.8929848 L14.7700775,6.61828788 C14.7700775,6.32351515 14.9877791,6.10957576 15.2875263,6.10957576 C15.5964487,6.10957576 15.8042169,6.3139697 15.8042169,6.61828788 L15.8042169,8.27328788 L17.6247662,6.37707576 C17.7060536,6.29677273 17.8385247,6.18843939 18.0359045,6.18843939 C18.2856812,6.19510606 18.5368986,6.36086364 18.5303016,6.66457576 C18.5303016,6.80662121 18.4453745,6.90033333 18.2760511,7.08707576 C18.2376064,7.12934848 18.1954461,7.17586364 18.1495703,7.22813636 L16.9052363,8.48245455 L18.3772812,10.4080606 C18.5293159,10.6063182 18.6553416,10.7704091 18.6278162,10.9809394 L18.6278162,10.9809394 Z M14.3239826,10.8776818 C14.3176131,11.0971515 14.1424509,11.3285909 13.8300404,11.3285909 L11.9033322,11.3285909 C11.5649128,11.3285909 11.3629076,11.1148788 11.3629076,10.757 L11.3629076,6.64889394 C11.3629076,6.31624242 11.5610456,6.10957576 11.8799773,6.10957576 C12.1986814,6.10957576 12.3966678,6.31624242 12.3966678,6.64889394 L12.3966678,10.3887424 L13.8300404,10.3887424 C13.984805,10.3887424 14.1134089,10.4384394 14.2022032,10.5326061 C14.2872062,10.6225303 14.3315654,10.7482879 14.3239826,10.8776818 L14.3239826,10.8776818 Z M10.3527298,11.386697 C10.0933229,11.386697 9.92839751,11.2695 9.84832336,11.0280606 L9.62235656,10.3217727 L7.46247788,10.3217727 L7.23089982,11.0200303 C7.1500674,11.2702576 6.99211812,11.386697 6.73384868,11.386697 C6.44858455,11.386697 6.22504423,11.1770758 6.22504423,10.9093485 C6.22504423,10.8032121 6.25696773,10.7216212 6.27228494,10.6826061 L7.77268936,6.71169697 C7.88021316,6.42063636 8.1384826,6.10995455 8.54150729,6.10995455 C8.89577471,6.10995455 9.17641335,6.32881818 9.31146263,6.71048485 L10.7657638,10.6751061 C10.811867,10.7994242 10.824227,10.9004091 10.824227,10.9403333 C10.824227,11.1906364 10.6170655,11.386697 10.3527298,11.386697 L10.3527298,11.386697 Z M5.35128065,10.8460152 C5.35128065,11.179197 5.15314264,11.3863939 4.83421097,11.3863939 C4.51565844,11.3863939 4.31759626,11.179197 4.31759626,10.8460152 L4.31759626,7.09571212 L3.23037745,7.09571212 C2.88930407,7.09571212 2.76828292,6.84298485 2.76828292,6.62654545 C2.76828292,6.39843939 2.93025107,6.15593939 3.23037745,6.15593939 L6.437817,6.15593939 C6.73855,6.15593939 6.90097312,6.39843939 6.90097312,6.62654545 C6.90097312,6.84298485 6.77964866,7.09571212 6.437817,7.09571212 L5.35128065,7.09571212 L5.35128065,10.8460152 Z M10.8062558,0.0586666667 C4.83822984,0.0586666667 -3.79138372e-05,3.87760606 -3.79138372e-05,8.58790909 C-3.79138372e-05,11.6164697 2.00060241,14.2766212 5.01536355,15.789803 L3.99692055,19.5910152 C3.95908248,19.7036667 3.98759373,19.8260152 4.07115595,19.9094242 C4.13136322,19.9695758 4.21075491,20.0000303 4.2901466,20.0000303 C4.35793664,20.0000303 4.42557503,19.9783636 4.48244587,19.9335909 L8.86332041,16.979197 C9.49360098,17.0692727 10.1429901,17.1169242 10.8062558,17.1169242 C16.7742817,17.1169242 21.6123978,13.2986667 21.6123978,8.58790909 C21.6123978,3.87760606 16.7742817,0.0586666667 10.8062558,0.0586666667 L10.8062558,0.0586666667 Z"
    id="Fill-1" mask="url(#mask-2)"></path>
  <path
    d="M8.54271374,6.99538514 L7.71084337,9.39759036 L9.39759036,9.39759036 L8.56426185,6.99538514 C8.56085952,6.98547403 8.54611608,6.98547403 8.54271374,6.99538514"
    id="Fill-4"></path>
</svg>
